<?xml version="1.0" standalone="no"?>
<!DOCTYPE svg PUBLIC "-//W3C//DTD SVG 20010904//EN"
 "http://www.w3.org/TR/2001/REC-SVG-20010904/DTD/svg10.dtd">
<svg version="1.0" xmlns="http://www.w3.org/2000/svg"
 width="89.000000pt" height="99.000000pt" viewBox="0 0 89.000000 99.000000"
 preserveAspectRatio="xMidYMid meet">

<g transform="translate(0.000000,99.000000) scale(0.100000,-0.100000)"
fill="#292353" stroke="none">
<path d="M343 885 c-228 -71 -343 -325 -247 -546 15 -34 14 -41 -10 -130 -14
-52 -26 -97 -26 -101 0 -3 44 5 99 20 l99 25 71 -23 c193 -62 400 25 486 205
38 79 46 205 20 290 -52 164 -208 276 -383 274 -37 0 -86 -6 -109 -14z m261
-48 c77 -35 140 -98 179 -176 29 -59 32 -74 32 -156 0 -82 -3 -97 -32 -156
-59 -120 -169 -195 -300 -206 -56 -4 -81 -1 -144 20 l-76 26 -74 -19 c-41 -11
-77 -20 -80 -20 -4 0 4 36 16 80 23 80 23 81 4 120 -120 247 73 532 348 516
49 -3 91 -13 127 -29z"/>
<path d="M397 696 c-141 -38 -193 -234 -87 -330 82 -74 242 -67 314 13 17 19
17 21 2 21 -9 0 -35 -12 -57 -27 -75 -49 -213 -33 -254 31 -64 98 -16 236 93
265 62 17 110 5 155 -39 30 -31 37 -45 37 -76 0 -43 -28 -97 -60 -114 -30 -16
-33 3 -15 89 8 40 15 77 15 82 0 15 -28 10 -38 -7 -8 -14 -10 -14 -21 0 -34
40 -119 -2 -141 -70 -28 -84 43 -165 105 -120 17 12 21 12 31 -1 18 -26 77 -8
113 32 36 42 45 72 38 125 -13 99 -117 156 -230 126z m70 -114 c35 -22 17
-118 -27 -142 -46 -25 -78 11 -65 76 10 57 56 89 92 66z"/>
</g>
</svg>
