<svg version="1.0" xmlns="http://www.w3.org/2000/svg"
 width="96.000000pt" height="99.000000pt" viewBox="0 0 96.000000 99.000000"
 preserveAspectRatio="xMidYMid meet">
<g transform="translate(0.000000,99.000000) scale(0.100000,-0.100000)"
fill="#292353" stroke="none">
<path d="M397 870 c-187 -48 -317 -222 -304 -411 3 -45 14 -96 27 -126 l22
-51 -27 -97 c-14 -53 -24 -99 -22 -101 2 -2 48 7 101 21 l97 26 52 -19 c198
-74 416 15 505 206 24 50 27 69 27 162 0 99 -2 110 -33 172 -42 85 -126 165
-208 197 -66 25 -179 35 -237 21z m149 -31 c122 -22 215 -94 272 -209 24 -48
27 -66 26 -150 0 -83 -4 -102 -28 -152 -33 -68 -116 -150 -183 -180 -69 -32
-229 -33 -291 -1 l-42 21 -76 -20 c-41 -11 -78 -18 -81 -14 -3 3 3 38 13 78
l20 72 -25 60 c-36 87 -35 198 1 278 52 112 160 198 275 218 26 4 51 8 54 9 3
0 32 -4 65 -10z"/>
<path d="M321 634 c-45 -57 -17 -140 79 -235 47 -47 68 -61 125 -78 73 -23 97
-21 133 12 36 34 29 60 -25 86 l-47 23 -22 -28 c-21 -25 -24 -26 -53 -14 -37
15 -111 86 -111 107 0 7 6 24 14 36 13 20 13 27 -6 70 -24 56 -54 63 -87 21z"/>
</g>
</svg>
