<svg height="42pt" preserveAspectRatio="xMidYMid meet" viewBox="0 0 48 42" width="48pt" xmlns="http://www.w3.org/2000/svg"><g transform="matrix(.1 0 0 -.1 0 42)"><path d="m10 401c-14-27-13-134 2-149 7-7 40-12 78-12s71 5 78 12c16 16 16 140 0 156-7 7-40 12-80 12-56 0-69-3-78-19z"/><path d="m252 411c-8-5-12-17-10-27 3-17 14-19 113-19s110 2 113 19c6 29-16 36-113 36-49 0-96-4-103-9z"/><path d="m244 285c-3-8-3-22 0-30 5-13 24-15 113-13 108 3 108 3 108 28s0 25-108 28c-89 2-108 0-113-13z"/><path d="m7 167c-13-35 6-37 234-35 216 3 224 4 224 23s-8 20-226 23c-184 2-228 0-232-11z"/><path d="m16 55c-8-9-13-22-9-30 4-13 39-15 232-13 212 3 226 4 229 22 2 10-2 22-10 27-7 5-106 9-220 9-172 0-209-3-222-15z"/></g></svg>