<svg height="80" viewBox="3.5 0 79.407 79.407" width="87" xmlns="http://www.w3.org/2000/svg"><circle cx="43.332" cy="39.745" fill="none" r="37.088" stroke="#000" stroke-width="2.5"/><path d="m34.522 23.9c0 1.224-.98 2.203-2.202 2.203s-2.203-.98-2.203-2.203v-5.872c0-1.225.98-2.203 2.203-2.203s2.202.98 2.202 2.203zm21.536-5.872c0-1.225-.98-2.203-2.202-2.203s-2.203.98-2.203 2.203v5.872c0 1.224.98 2.203 2.203 2.203s2.202-.98 2.202-2.203zm9.3 5.58v33.82c0 1.322-1.078 2.398-2.448 2.398h-39.155c-1.37 0-2.448-1.076-2.448-2.398v-33.82c0-1.322 1.078-2.4 2.448-2.4h4.894v2.692c0 2.105 1.566 3.77 3.672 3.77s3.67-1.714 3.67-3.77v-2.692h14.193v2.692c0 2.105 1.566 3.77 3.672 3.77s3.67-1.714 3.67-3.77v-2.692h5.334c1.323-.001 2.497 1.076 2.497 2.4zm-3.916 8.8c0-.5-.44-.93-.98-.93h-34.26c-.538 0-.98.4-.98.93v22.632c0 .488.44.93.98.93h34.26c.538 0 .98-.392.98-.93v-22.615zm-9.735 4.135-11.527 11.557-5.102-5.1a1.6 1.6 0 1 0 -2.29 2.29l6.227 6.226c.32.32.722.48 1.124.48s.843-.16 1.125-.48l12.612-12.612a1.6 1.6 0 0 0 0-2.289c-.522-.644-1.566-.644-2.17-.04z"/></svg>