<svg width="204" height="144" xmlns="http://www.w3.org/2000/svg" preserveAspectRatio="xMidYMid meet" version="1.0">

 <g>
  <title>Layer 1</title>
  <g id="svg_1" fill="#000000" transform="translate(0.000000,144.000000) scale(0.100000,-0.100000)">
   <path id="svg_2" d="m339,1157c-104,-30 -190,-104 -238,-206c-22,-48 -26,-70 -26,-146c0,-82 3,-97 33,-157c72,-147 239,-232 390,-199c158,34 265,143 295,302c27,149 -62,314 -207,383c-70,33 -176,43 -247,23zm193,-83c61,-20 117,-70 153,-135c26,-47 30,-64 30,-134c0,-70 -4,-87 -30,-133c-68,-124 -201,-178 -340,-138c-77,23 -154,98 -180,175c-38,116 -5,237 86,315c74,63 185,83 281,50z"/>
   <path id="svg_3" d="m715,520l-39,-40l134,-135c74,-74 140,-135 146,-135c12,0 74,65 74,77c0,8 -262,273 -270,273c-3,0 -24,-18 -45,-40z"/>
  </g>
  <line stroke="#000" stroke-linecap="undefined" stroke-linejoin="undefined" id="svg_4" y2="121.85286" x2="165.55814" y1="25.87209" x1="165.55814" fill="none"/>
 </g>
</svg>