<svg xmlns="http://www.w3.org/2000/svg" width="85" height="87" viewBox="0 0 84.62 86.494"><circle fill="none" stroke="#000" stroke-width="2.5" cx="42.719" cy="43.274" r="37.087"/><path d="M50.46 33.482L42.453 61.2c-.458 1.603-.65 2.632-.65 3.128 0 .305.115.533.343.8.23.228.496.38.726.38.456 0 .878-.2 1.336-.57 1.182-.954 2.6-2.707 4.193-5.225l1.332.764C45.81 67.3 41.654 70.733 37.23 70.733c-1.678 0-3.05-.458-4.04-1.41S31.7 67.186 31.7 65.7c0-.953.23-2.173.648-3.66l5.414-18.645c.535-1.79.763-3.164.763-4.04 0-.57-.228-1.068-.724-1.525s-1.182-.648-2.02-.648c-.384 0-.877 0-1.41.04l.496-1.563 13.23-2.136h2.365v-.04zm-2.44-16.714a5.57 5.57 0 0 1 4.081 1.678c1.104 1.105 1.64 2.48 1.64 4.04 0 1.602-.57 2.936-1.678 4.04s-2.48 1.678-4.043 1.678-2.898-.572-4.003-1.678a5.56 5.56 0 0 1-1.677-4.041c0-1.602.533-2.936 1.64-4.04a5.55 5.55 0 0 1 4.041-1.678z"/></svg>