<svg fill="#333759" width="20px" id="Layer_1" data-name="Layer 1" xmlns="http://www.w3.org/2000/svg" viewBox="0 0 141.73 141.73"><title>Link (Icon)</title><path d="M120.68,21.05a27.07,27.07,0,0,0-38.28,0L59.78,43.67C48.85,54.61,49.86,72,59.78,82a25.71,25.71,0,0,0,5.44,4.13L69.35,82c2.71-2.71,1.75-5.87,1.71-8.16a12,12,0,0,1-1.71-1.41,13.68,13.68,0,0,1,0-19.14L92,30.62a13.53,13.53,0,0,1,19.14,19.14l-15,14.95c.43,2.4,3,8.06,1.69,17.41.07-.06.14-.1.21-.17l22.62-22.62A27.07,27.07,0,0,0,120.68,21.05Z"/><path d="M83.7,58a25.71,25.71,0,0,0-5.44-4.13L74.13,58c-2.7,2.71-1.75,5.87-1.7,8.16a12.47,12.47,0,0,1,1.7,1.41,13.66,13.66,0,0,1,0,19.14L49.76,111.11A13.53,13.53,0,0,1,30.62,92l16.71-16.7c-.44-2.4-3-8.06-1.69-17.41a1.73,1.73,0,0,0-.21.17L21.05,82.4a27.07,27.07,0,0,0,38.28,38.28L83.7,96.31A27.3,27.3,0,0,0,83.7,58Z"/></svg>