<svg height="87" viewBox="0 0 88.838 86.699" width="89" xmlns="http://www.w3.org/2000/svg"><circle cx="44.144" cy="43.131" fill="#e45c25" r="37.088"/><path d="m22.385 55.797c-4.252 0-6.65-2.993-6.65-5.952 0-2.807 2.278-5.953 6.65-5.953s6.633 3.163 6.633 5.953c0 2.975-2.466 5.952-6.633 5.952zm0-9.5c-2.2 0-3.674 1.412-3.674 3.538s1.463 3.537 3.674 3.537c2.194 0 3.656-1.4 3.656-3.537s-1.462-3.538-3.656-3.538zm16.717-.127h-5.102v2.585h5.102v2.126h-5.102v4.762h-2.892v-11.6h7.992v2.126zm10.27 0h-5.102v2.585h5.102v2.126h-5.102v4.762h-2.9v-11.6h7.993v2.126zm10.867 9.474h-8.554v-11.6h8.436v2.126h-5.545v2.432h5.3v2.126h-5.3v2.8h5.663v2.125zm7.397-11.6c2.382 0 3.793 1.6 3.793 3.333 0 1.276-.663 2.23-2 2.84 1.2.595 1.547 2.023 3.18 5.425h-3.18c-1.242-2.482-1.7-4.7-3.266-4.7h-.834v4.7h-2.9v-11.6h5.187zm-2.296 4.762h1.53c.8 0 1.58-.34 1.58-1.326 0-.867-.56-1.3-1.65-1.3h-1.46v2.636zm-43.232-15.901c-1.3-.578-2.072-.8-2.834-.8-.8 0-1.312.3-1.312.734 0 1.352 4.553.97 4.553 4.094 0 1.72-1.443 2.716-3.438 2.716-1.562 0-2.336-.407-3.228-.866v-1.93c1.286.853 2.072 1.155 3.057 1.155.853 0 1.313-.303 1.313-.827 0-1.47-4.553-.932-4.553-4.146 0-1.55 1.34-2.57 3.4-2.57.997 0 1.902.2 3.03.694v1.747zm5.996-2.322c2.047 0 2.966 1.43 2.966 2.65 0 1.26-.893 2.702-2.952 2.702h-1.77v3.595h-2.23v-8.947h3.987zm-1.758 3.713h1.036c1.023 0 1.4-.367 1.4-1.037 0-.76-.433-1.036-1.64-1.036h-.787v2.073zm12.91 5.234h-6.6v-8.947h6.508v1.64h-4.277v1.877h4.08v1.64h-4.08v2.15h4.37v1.64zm10.05-.774c-1.247.643-2.192.893-3.517.893-3.477 0-5.208-2.257-5.208-4.565 0-2.4 1.954-4.618 5.38-4.618 1.246 0 2.36.262 3.24.787v1.994c-.984-.552-1.98-.92-3.083-.92-1.902 0-3.24 1.13-3.24 2.717 0 1.6 1.324 2.74 3.188 2.74 1.168 0 1.955-.367 3.24-.983v1.953zm4.08.774h-2.23v-8.947h2.23zm11.268 0h-2.4l-.734-1.77h-4.002l-.67 1.77h-2.36l3.607-8.947h2.585zm-5.234-6.808-1.315 3.478h2.756l-1.443-3.477zm13.08 6.808h-6.8v-8.947h2.23v7.308h4.592v1.64z" fill="#fff"/></svg>