<svg height="28pt" preserveAspectRatio="xMidYMid meet" viewBox="0 0 35 28" width="35pt" xmlns="http://www.w3.org/2000/svg"><g transform="matrix(.1 0 0 -.1 0 28)"><path d="m78 274c-5-4-8-57-8-118l-1-111-22 28c-25 29-37 34-37 14 0-15 62-77 75-76 15 1 79 79 71 86-3 4-20-6-36-22l-29-28-3 117c-2 65-6 114-10 110z"/><path d="m130 270c0-6 42-10 105-10s105 4 105 10-42 10-105 10-105-4-105-10z"/><path d="m130 210c0-6 35-10 85-10s85 4 85 10-35 10-85 10-85-4-85-10z"/><path d="m130 160c0-6 29-10 66-10 41 0 63 4 59 10-3 6-33 10-66 10s-59-4-59-10z"/></g></svg>