<svg viewBox="0 0 28.35 28.35" xmlns="http://www.w3.org/2000/svg"><path d="m11.91 21.38h-6.21a2 2 0 0 1 -2-2v-11.68a2 2 0 0 1 2-2h.3v1.04a.51.51 0 0 0 1 0v-1.08h1.36v1.08a.51.51 0 0 0 1 0v-1.08h1.34v1.08a.51.51 0 0 0 1 0v-1.08h1.3v1.08a.51.51 0 1 0 1 0v-1.08h1.32v1.08a.51.51 0 0 0 .51.51.51.51 0 0 0 .51-.51v-1.08h1.32v1.08a.52.52 0 0 0 1 0v-1.08h.31a2 2 0 0 1 2 2v3.59a.51.51 0 0 0 .51.51.51.51 0 0 0 .51-.51v-3.55a3.06 3.06 0 0 0 -3.06-3.06h-.31v-1.08a.52.52 0 0 0 -1 0v1.08h-1.21v-1.08a.52.52 0 0 0 -1 0v1.08h-1.35v-1.08a.51.51 0 1 0 -1 0v1.08h-1.34v-1.08a.51.51 0 1 0 -1 0v1.08h-1.34v-1.08a.51.51 0 1 0 -1 0v1.08h-1.38v-1.08a.51.51 0 1 0 -1 0v1.08h-.3a3.07 3.07 0 0 0 -3.06 3.06v11.64a3.07 3.07 0 0 0 3.06 3.06h6.21a.51.51 0 0 0 .51-.51.51.51 0 0 0 -.51-.51z"/><path d="m19.27 12.43a6.44 6.44 0 1 0 6.44 6.43 6.44 6.44 0 0 0 -6.44-6.43zm0 11.85a5.42 5.42 0 1 1 5.41-5.42 5.42 5.42 0 0 1 -5.41 5.42z"/><path d="m18.34 9.1h-11.91a.51.51 0 0 0 -.51.51.51.51 0 0 0 .51.51h11.91a.51.51 0 0 0 .51-.51.51.51 0 0 0 -.51-.51z"/><path d="m21.61 18.35h-1.61v-2.77a.52.52 0 0 0 -1 0v3.28a.51.51 0 0 0 .52.51h2.1a.51.51 0 0 0 0-1z"/></svg>