<svg viewBox="0 0 28.35 28.35" xmlns="http://www.w3.org/2000/svg"><path d="m3.46 24.93 1.54-5.59a10.64 10.64 0 1 1 4.17 4.09zm5.84-2.57.18.11a9.73 9.73 0 1 0 -3.48-3.47l.11.18-1.23 4.34z"/><path d="m13.3 17.33h1.66v1.64h-1.66z"/><path d="m16.62 10.19a3.58 3.58 0 0 0 -2.46-.81 3.45 3.45 0 0 0 -2.37.8 3.23 3.23 0 0 0 -1 2.15h1.65a2.16 2.16 0 0 1 .63-1.19 1.76 1.76 0 0 1 1.15-.39 1.62 1.62 0 0 1 1.12.37 1.17 1.17 0 0 1 .42.9 1.14 1.14 0 0 1 -.23.69 9.39 9.39 0 0 1 -.94.84 3.78 3.78 0 0 0 -1 1.15 2.78 2.78 0 0 0 -.29 1.3v.43h1.63a2.77 2.77 0 0 1 .13-1 2.74 2.74 0 0 1 .7-.76 7.54 7.54 0 0 0 1.44-1.47 2.1 2.1 0 0 0 .33-1.12 2.45 2.45 0 0 0 -.91-1.89z"/></svg>